<?xml version="1.0" standalone="no"?>
<!DOCTYPE svg PUBLIC "-//W3C//DTD SVG 20010904//EN"
 "http://www.w3.org/TR/2001/REC-SVG-20010904/DTD/svg10.dtd">
<svg version="1.0" xmlns="http://www.w3.org/2000/svg"
 width="512.000000pt" height="512.000000pt" viewBox="0 0 512.000000 512.000000"
 preserveAspectRatio="xMidYMid meet">
<metadata>
Created by potrace 1.14, written by Peter Selinger 2001-2017
</metadata>
<g transform="translate(0.000000,512.000000) scale(0.100000,-0.100000)"
fill="#000000" stroke="none">
<path d="M818 4265 c-26 -7 -49 -10 -52 -7 -4 3 -6 -1 -6 -8 0 -7 -3 -11 -6
-7 -12 12 -84 -67 -101 -111 -23 -60 -22 -98 2 -157 17 -43 101 -131 592 -622
315 -315 573 -575 573 -578 0 -3 -253 -259 -562 -569 -310 -310 -571 -573
-580 -584 -19 -23 -40 -91 -43 -135 -2 -29 35 -118 57 -140 27 -26 74 -54 103
-62 41 -11 135 -7 135 6 0 4 11 10 25 13 24 6 1309 1281 1352 1342 22 30 55
129 47 137 -3 3 -6 15 -8 28 -1 13 -10 39 -19 56 -22 42 -1337 1357 -1380
1380 -18 9 -36 16 -40 15 -4 -1 -16 2 -25 6 -10 6 -36 4 -64 -3z"/>
<path d="M2514 1277 c-8 -4 -14 -5 -14 -2 0 11 -64 -29 -88 -55 -32 -34 -56
-70 -59 -89 -5 -23 -5 -113 -1 -134 10 -43 103 -135 131 -129 4 1 7 -2 7 -6 0
-4 10 -9 23 -10 69 -6 1767 -3 1792 2 17 4 36 8 43 8 6 1 12 5 12 10 0 4 7 8
15 8 8 0 15 4 15 9 0 5 8 12 19 16 10 3 27 22 37 43 10 20 22 39 27 40 4 2 4
8 1 13 -3 6 -2 15 3 22 17 25 3 112 -26 157 -28 44 -55 66 -101 85 -42 17 -97
18 -933 19 -489 1 -895 -3 -903 -7z"/>
</g>
</svg>
